<?xml version="1.0" standalone="no"?>
<!DOCTYPE svg PUBLIC "-//W3C//DTD SVG 20010904//EN"
 "http://www.w3.org/TR/2001/REC-SVG-20010904/DTD/svg10.dtd">
<svg version="1.0" xmlns="http://www.w3.org/2000/svg"
 width="70.000000pt" height="70.000000pt" viewBox="0 0 70.000000 70.000000"
 preserveAspectRatio="xMidYMid meet">
<metadata>
Created by potrace 1.14, written by Peter Selinger 2001-2017
</metadata>
<g transform="translate(0.000000,70.000000) scale(0.100000,-0.100000)"
fill="#000000" stroke="none">
<path d="M19 679 c-27 -27 -21 -66 12 -92 32 -23 62 -16 85 18 41 62 -44 127
-97 74z"/>
<path d="M308 683 c-9 -10 -18 -25 -20 -33 -7 -22 18 -67 42 -75 30 -9 73 16
81 49 15 55 -66 101 -103 59z"/>
<path d="M596 685 c-36 -37 -23 -95 25 -110 29 -9 73 24 77 58 6 51 -66 88
-102 52z"/>
<path d="M322 407 c-42 -19 -42 -95 0 -114 32 -14 77 3 84 33 15 59 -32 104
-84 81z"/>
<path d="M614 408 c-49 -26 -57 -67 -19 -102 42 -39 105 -9 105 50 0 38 -52
69 -86 52z"/>
<path d="M14 385 c-21 -33 -10 -74 25 -91 31 -16 62 -4 81 30 13 23 13 29 0
54 -23 40 -82 44 -106 7z"/>
<path d="M21 109 c-57 -53 19 -142 81 -96 27 21 32 60 11 86 -25 30 -66 34
-92 10z"/>
<path d="M312 114 c-48 -33 -17 -114 44 -114 51 0 75 84 32 114 -28 20 -48 20
-76 0z"/>
<path d="M595 105 c-14 -13 -25 -33 -25 -43 0 -25 41 -62 68 -62 24 0 62 32
62 52 0 32 -14 56 -36 67 -35 16 -42 14 -69 -14z"/>
</g>
</svg>
